<?xml version="1.0" encoding="UTF-8" standalone="no"?>
<!DOCTYPE svg PUBLIC "-//W3C//DTD SVG 1.1//EN" "http://www.w3.org/Graphics/SVG/1.1/DTD/svg11.dtd">
<svg width="100%" height="100%" viewBox="0 0 3840 442" version="1.1" 
    xmlns="http://www.w3.org/2000/svg" 
    xmlns:xlink="http://www.w3.org/1999/xlink" xml:space="preserve" 
    xmlns:serif="http://www.serif.com/" style="fill-rule:evenodd;clip-rule:evenodd;stroke-linejoin:round;stroke-miterlimit:1.41421;">
    <path d="M0,62c0,0 193.777,24.272 306,83c112.223,58.728 177.307,91.297 259,84c81.693,-7.297 158.345,-33.268 190,-46c31.655,-12.732 239.845,-89.282 318,-87c78.155,2.282 144.033,-0.88 309,61c164.967,61.88 287.988,130.083 460,154c172.012,23.917 461.924,-82.352 563,-89c133.596,-8.787 231.185,11.314 380,62c127.29,43.354 301.681,-8.726 397,-52c95.319,-43.274 304.071,-141.702 365,-167c60.929,-25.298 210.754,-64.186 293,-65l0,442l-3840,0l0,-380Z" style="fill:#fff;"/>
</svg>